<svg width="24" height="24" viewBox="0 0 24 24" fill="none" xmlns="http://www.w3.org/2000/svg">
<path fill-rule="evenodd" clip-rule="evenodd" d="M2 12C2 6.48 6.47 2 12 2C17.52 2 22 6.48 22 12C22 17.53 17.52 22 12 22C6.47 22 2 17.53 2 12ZM14.23 13.83L15.85 8.71C15.96 8.36 15.64 8.03 15.29 8.14L10.17 9.74C9.95995 9.81 9.78995 9.97 9.72995 10.18L8.12995 15.31C8.01995 15.65 8.34995 15.98 8.68995 15.87L13.79 14.27C14 14.21 14.17 14.04 14.23 13.83Z" fill="#3F69FF"/>
<circle cx="11.9999" cy="12" r="1.42857" fill="#3F69FF"/>
</svg>
